<?xml version="1.0" encoding="utf-8"?>
<!-- Generator: Adobe Illustrator 19.2.1, SVG Export Plug-In . SVG Version: 6.00 Build 0)  -->
<svg version="1.1" id="Layer_1" xmlns="http://www.w3.org/2000/svg" xmlns:xlink="http://www.w3.org/1999/xlink" x="0px" y="0px"
	 viewBox="0 0 54 52" style="enable-background:new 0 0 54 52;" xml:space="preserve">
<style type="text/css">
	.st0{fill:#FFC100;}
</style>
<g>
	<rect x="11.9" y="5.4" width="30" height="41.2"/>
	<g>
		<path class="st0" d="M33.1,17.2c-2,0-4.1,0-6.1,0c-2.3,0-4.5,0-6.8,0c-1.1,0-2.1,0.3-2.6,1.2c-0.6,1-1.2,2.2-1.2,3.4
			c-0.2,2.9-0.1,5.8,0,8.6c0.1,2.5,1.8,4.3,4.4,4.4c4.2,0.1,8.5,0,12.7,0c2.2,0,4.1-1.9,4.2-4.1c0.1-3.1,0.1-6.1,0-9.2
			C37.6,18.8,35.8,17.2,33.1,17.2z M35,28.1c-4,2.1-7.9,4.1-11.9,6.1c-0.1,0-0.1,0-0.3,0c-0.3-0.6-0.7-1.3-1-2
			c-1.1-2.3-2.1-4.6-3.2-6.8c-0.3-0.7-0.3-1,0.5-1.4c2.7-1.3,2.3-1.5,3.6,1.3c0.8,1.9,1.7,3.7,2.6,5.7c0.5-0.2,0.8-0.4,1.3-0.7
			c-1-2.2-2-4.3-2.9-6.4c-0.2-0.4-0.3-0.8-0.5-1.2c-0.2-0.5-0.2-0.8,0.4-1c0.9-0.4,1.7-0.8,2.6-1.3c0.2,0.4,0.5,0.7,0.6,1.1
			c1,2,1.9,4,2.8,6.1c0.4,1,0.9,1,1.7,0.3c-1.2-2.7-2.4-5.4-3.6-8.2c0.9-0.5,1.8-1,2.7-1.4c0.2-0.1,0.7,0.2,0.8,0.4
			c1.4,2.9,2.8,5.8,4.1,8.7C35.4,27.4,35.2,28,35,28.1z"/>
		<path class="st0" d="M42,1.6H12c-5.1,0-9.4,4.2-9.4,9.4v30c0,5.1,4.2,9.4,9.4,9.4h30c5.1,0,9.4-4.2,9.4-9.4V11
			C51.4,5.9,47.2,1.6,42,1.6z M40.9,30.6c-0.1,4.8-3,7.6-7.8,7.6c-2.1,0-4.2,0-6.4,0c-2.3,0-4.5,0-6.8,0c-3.7,0-6.9-3.2-6.9-7
			c0-3.3,0-6.5,0-9.8c0-4.3,3-7.4,7.3-7.4c4.5-0.1,9.1-0.1,13.6,0c3.8,0,7,3.2,7,7C41,24.2,41,27.4,40.9,30.6z"/>
	</g>
</g>
</svg>
