<?xml version="1.0" encoding="UTF-8" standalone="no"?>
<!-- Generator: Adobe Illustrator 19.2.1, SVG Export Plug-In . SVG Version: 6.00 Build 0)  -->

<svg
   xmlns:dc="http://purl.org/dc/elements/1.1/"
   xmlns:cc="http://creativecommons.org/ns#"
   xmlns:rdf="http://www.w3.org/1999/02/22-rdf-syntax-ns#"
   xmlns:svg="http://www.w3.org/2000/svg"
   xmlns="http://www.w3.org/2000/svg"
   xmlns:sodipodi="http://sodipodi.sourceforge.net/DTD/sodipodi-0.dtd"
   xmlns:inkscape="http://www.inkscape.org/namespaces/inkscape"
   version="1.1"
   id="Layer_1"
   x="0px"
   y="0px"
   viewBox="0 0 50 50"
   xml:space="preserve"
   inkscape:version="0.91 r13725"
   sodipodi:docname="social-twitter.svg"
   width="50"
   height="50"><metadata
     id="metadata15"><rdf:RDF><cc:Work
         rdf:about=""><dc:format>image/svg+xml</dc:format><dc:type
           rdf:resource="http://purl.org/dc/dcmitype/StillImage" /><dc:title></dc:title></cc:Work></rdf:RDF></metadata><defs
     id="defs13" /><sodipodi:namedview
     pagecolor="#ffffff"
     bordercolor="#666666"
     borderopacity="1"
     objecttolerance="10"
     gridtolerance="10"
     guidetolerance="10"
     inkscape:pageopacity="0"
     inkscape:pageshadow="2"
     inkscape:window-width="1097"
     inkscape:window-height="626"
     id="namedview11"
     showgrid="false"
     inkscape:zoom="4.5384615"
     inkscape:cx="16.687574"
     inkscape:cy="17.186441"
     inkscape:window-x="20"
     inkscape:window-y="43"
     inkscape:window-maximized="0"
     inkscape:current-layer="Layer_1" /><style
     type="text/css"
     id="style3">
	.st0{fill:#FFC100;}
</style><path
     d="m 29.728811,14.34961 c -3.2,0 -5.800781,2.499218 -5.800781,5.699218 -5.8,-0.7 -8.099219,-4.198437 -8.199219,-4.398437 -0.2,-0.3 -0.600391,-0.40039 -0.900391,-0.40039 -0.4,0.1 -0.698828,0.299609 -0.798828,0.599609 -3.3,7.599999 2.1,12.799608 4.5,14.599608 -1,0.600001 -2.80039,1.49961 -5.40039,1.09961 -0.4,-0.1 -0.9,0.201562 -1,0.601562 -0.1,0.4 3.9e-4,0.899611 0.40039,1.09961 0,0.1 3.998828,2.40039 8.798828,2.40039 3.1,0 6.59961,-1.001562 9.59961,-4.101562 4.3,-4.4 5.001172,-8.3 4.701172,-11 1.2,-1.1 1.999218,-3.199219 2.199218,-3.699219 0.2,-0.5 -3.9e-4,-0.999218 -0.40039,-1.199218 -0.3,-0.1 -0.499219,-0.1 -0.699219,0 -0.2,-0.1 -0.300391,-0.101562 -0.400391,-0.101562 -0.1,0 -1.298828,0.0012 -2.798828,0.201172 -1.1,-0.9 -2.400781,-1.400391 -3.800781,-1.400391 z"
     id="rect7"
     inkscape:connector-curvature="0" /></svg>