<?xml version="1.0" encoding="UTF-8" standalone="no"?>
<!-- Generator: Adobe Illustrator 19.2.1, SVG Export Plug-In . SVG Version: 6.00 Build 0)  -->

<svg
   xmlns:dc="http://purl.org/dc/elements/1.1/"
   xmlns:cc="http://creativecommons.org/ns#"
   xmlns:rdf="http://www.w3.org/1999/02/22-rdf-syntax-ns#"
   xmlns:svg="http://www.w3.org/2000/svg"
   xmlns="http://www.w3.org/2000/svg"
   xmlns:sodipodi="http://sodipodi.sourceforge.net/DTD/sodipodi-0.dtd"
   xmlns:inkscape="http://www.inkscape.org/namespaces/inkscape"
   version="1.1"
   id="Layer_1"
   x="0px"
   y="0px"
   viewBox="0 0 50 50"
   xml:space="preserve"
   inkscape:version="0.91 r13725"
   sodipodi:docname="social-facebook.svg"
   width="50"
   height="50"><metadata
     id="metadata17"><rdf:RDF><cc:Work
         rdf:about=""><dc:format>image/svg+xml</dc:format><dc:type
           rdf:resource="http://purl.org/dc/dcmitype/StillImage" /><dc:title></dc:title></cc:Work></rdf:RDF></metadata><defs
     id="defs15" /><sodipodi:namedview
     pagecolor="#ffffff"
     bordercolor="#666666"
     borderopacity="1"
     objecttolerance="10"
     gridtolerance="10"
     guidetolerance="10"
     inkscape:pageopacity="0"
     inkscape:pageshadow="2"
     inkscape:window-width="1003"
     inkscape:window-height="739"
     id="namedview13"
     showgrid="false"
     inkscape:zoom="6.4183539"
     inkscape:cx="19.27299"
     inkscape:cy="23.164388"
     inkscape:window-x="0"
     inkscape:window-y="0"
     inkscape:window-maximized="0"
     inkscape:current-layer="Layer_1" /><style
     type="text/css"
     id="style3">
	.st0{fill:#FFC100;}
</style><path
     d="m 27.399414,10.849609 c -2.8,0 -5,2.301172 -5,5.201172 l 0,3.199219 c 0,1 -0.798828,1.800781 -1.798828,1.800781 l -1.5,0 c -1,0 -1.800782,0.798828 -1.800782,1.798828 0,1 0.800782,1.800782 1.800782,1.800782 l 1.5,0 c 1,0 1.798828,0.798828 1.798828,1.798828 l 0,10.90039 c 0,1 0.800781,1.800782 1.800781,1.800782 l 0.800781,0 c 1,0 1.798828,-0.800782 1.798828,-1.800782 l 0,-10.90039 c 0,-1 0.800783,-1.798828 1.800783,-1.798828 l 2.298827,0 c 1,0 1.800781,-0.800782 1.800781,-1.800782 0,-1 -0.800781,-1.798828 -1.800781,-1.798828 l -2.298828,0 c -1,0 -1.800782,-0.800781 -1.800782,-1.800781 l 0,-2.5 c 0,-1.1 0.800782,-2.1 1.800782,-2 l 2.199218,0 c 1,0 1.800782,-0.800781 1.800782,-1.800781 l 0,-0.298828 c 0,-1 -0.800782,-1.800782 -1.800782,-1.800782 l -3.40039,0 z"
     id="rect9"
     inkscape:connector-curvature="0" /></svg>