<?xml version="1.0" encoding="utf-8"?>
<!-- Generator: Adobe Illustrator 19.2.1, SVG Export Plug-In . SVG Version: 6.00 Build 0)  -->
<svg version="1.1" id="Layer_1" xmlns="http://www.w3.org/2000/svg" xmlns:xlink="http://www.w3.org/1999/xlink" x="0px" y="0px"
	 viewBox="0 0 54 52" style="enable-background:new 0 0 54 52;" xml:space="preserve">
<style type="text/css">
	.st0{fill:#FFC100;}
</style>
<g>
	<g>
		<rect x="11.9" y="5" width="30" height="41.2"/>
		<path class="st0" d="M29.1,17.5V20c0,1,0.8,1.8,1.8,1.8h2.3c1,0,1.8,0.8,1.8,1.8v0c0,1-0.8,1.8-1.8,1.8h-2.3c-1,0-1.8,0.8-1.8,1.8
			v10.9c0,1-0.8,1.8-1.8,1.8h-0.8c-1,0-1.8-0.8-1.8-1.8V27.2c0-1-0.8-1.8-1.8-1.8h-1.5c-1,0-1.8-0.8-1.8-1.8v0c0-1,0.8-1.8,1.8-1.8
			h1.5c1,0,1.8-0.8,1.8-1.8v-3.2c0-2.9,2.2-5.2,5-5.2h3.4c1,0,1.8,0.8,1.8,1.8v0.3c0,1-0.8,1.8-1.8,1.8h-2.2
			C29.9,15.4,29.1,16.4,29.1,17.5z M41.9,1.2H13.8c-6.2,0-11.2,5-11.2,11.2v26.4c0,6.2,5,11.2,11.2,11.2h26.4
			c6.2,0,11.2-5,11.2-11.2V10.5C51.3,5.4,47.2,1.2,41.9,1.2z"/>
	</g>
</g>
</svg>
