<?xml version="1.0" encoding="UTF-8" standalone="no"?>
<!-- Generator: Adobe Illustrator 19.2.1, SVG Export Plug-In . SVG Version: 6.00 Build 0)  -->

<svg
   xmlns:dc="http://purl.org/dc/elements/1.1/"
   xmlns:cc="http://creativecommons.org/ns#"
   xmlns:rdf="http://www.w3.org/1999/02/22-rdf-syntax-ns#"
   xmlns:svg="http://www.w3.org/2000/svg"
   xmlns="http://www.w3.org/2000/svg"
   xmlns:sodipodi="http://sodipodi.sourceforge.net/DTD/sodipodi-0.dtd"
   xmlns:inkscape="http://www.inkscape.org/namespaces/inkscape"
   version="1.1"
   id="Layer_1"
   x="0px"
   y="0px"
   viewBox="0 0 50 50"
   xml:space="preserve"
   inkscape:version="0.91 r13725"
   sodipodi:docname="social-wykop.svg"
   width="50"
   height="50"><metadata
     id="metadata19"><rdf:RDF><cc:Work
         rdf:about=""><dc:format>image/svg+xml</dc:format><dc:type
           rdf:resource="http://purl.org/dc/dcmitype/StillImage" /><dc:title></dc:title></cc:Work></rdf:RDF></metadata><defs
     id="defs17" /><sodipodi:namedview
     pagecolor="#ffffff"
     bordercolor="#666666"
     borderopacity="1"
     objecttolerance="10"
     gridtolerance="10"
     guidetolerance="10"
     inkscape:pageopacity="0"
     inkscape:pageshadow="2"
     inkscape:window-width="1115"
     inkscape:window-height="584"
     id="namedview15"
     showgrid="false"
     inkscape:zoom="4.5384615"
     inkscape:cx="-3.8039126"
     inkscape:cy="26.322679"
     inkscape:window-x="20"
     inkscape:window-y="43"
     inkscape:window-maximized="0"
     inkscape:current-layer="Layer_1" /><style
     type="text/css"
     id="style3">
	.st0{fill:#FFC100;}
</style><path
     d="m 25.111913,12.863281 c -2.274999,0 -4.548828,0.02422 -6.798828,0.07422 -4.3,-1e-6 -7.300781,3.100389 -7.300781,7.400389 l 0,9.798828 c 0,3.8 3.200391,7 6.900391,7 l 6.798828,0 6.40039,0 c 4.8,0 7.700783,-2.79961 7.800782,-7.59961 0.1,-3.2 0.1,-6.399608 0,-9.599609 0,-3.8 -3.2,-7 -7,-7 -2.25,-0.05 -4.525782,-0.07422 -6.800782,-0.07422 z m -6.90039,3.273438 6.800781,0 6.099609,0 c 2.700001,0 4.49961,1.600781 4.59961,4.300781 0.1,3.1 0.1,6.099219 0,9.199219 -0.1,2.2 -1.999218,4.101562 -4.199219,4.101562 -4.2,0 -8.499219,0.1 -12.699219,0 -2.6,-0.1 -4.300389,-1.90039 -4.40039,-4.40039 -0.1,-2.8 -0.2,-5.69961 0,-8.59961 0,-1.2 0.599218,-2.40039 1.199218,-3.40039 0.5,-0.9 1.49961,-1.201172 2.59961,-1.201172 z m 10.396484,1.09375 c -0.07656,-0.01719 -0.145312,-0.01719 -0.195312,0.0078 -0.9,0.4 -1.801172,0.898438 -2.701172,1.398438 1.2,2.8 2.401562,5.501172 3.601562,8.201172 -0.8,0.7 -1.301172,0.699218 -1.701172,-0.300782 -0.899999,-2.1 -1.798828,-4.099609 -2.798828,-6.099609 -0.1,-0.4 -0.401561,-0.699609 -0.601562,-1.099609 -0.9,0.5 -1.69961,0.898828 -2.59961,1.298828 -0.6,0.2 -0.60039,0.5 -0.40039,1 0.2,0.4 0.3,0.801172 0.5,1.201172 0.9,2.1 1.90039,4.20039 2.90039,6.40039 -0.5,0.3 -0.798828,0.499219 -1.298828,0.699219 -0.9,-2 -1.801562,-3.799219 -2.601562,-5.699219 -1.3,-2.8 -0.89961,-2.600781 -3.59961,-1.300781 -0.8,0.4 -0.8,0.700391 -0.5,1.400391 1.100001,2.2 2.101172,4.498828 3.201172,6.798828 0.3,0.7 0.7,1.4 1,2 l 0.298828,0 c 4,-2 7.900391,-3.99961 11.900391,-6.09961 0.200001,-0.1 0.400781,-0.699218 0.300781,-0.699218 -1.299999,-2.9 -2.701562,-5.801172 -4.101562,-8.701172 -0.075,-0.15 -0.373828,-0.354688 -0.603516,-0.40625 z"
     id="rect7"
     inkscape:connector-curvature="0" /></svg>