<?xml version="1.0" encoding="utf-8"?>
<!-- Generator: Adobe Illustrator 19.2.1, SVG Export Plug-In . SVG Version: 6.00 Build 0)  -->
<svg version="1.1" id="Layer_1" xmlns="http://www.w3.org/2000/svg" xmlns:xlink="http://www.w3.org/1999/xlink" x="0px" y="0px"
	 viewBox="0 0 54 52" style="enable-background:new 0 0 54 52;" xml:space="preserve">
<style type="text/css">
	.st0{fill:#FFC100;}
</style>
<g>
	<rect x="12.6" y="5.7" width="30" height="41.2"/>
	<path class="st0" d="M42.8,1.8h-30c-5.1,0-9.4,4.2-9.4,9.4v30c0,5.1,4.2,9.4,9.4,9.4h30c5.1,0,9.4-4.2,9.4-9.4v-30
		C52.2,6,48.1,1.8,42.8,1.8z M40.6,18c-0.2,0.5-1,2.6-2.2,3.7c0.3,2.7-0.4,6.6-4.7,11c-3,3.1-6.5,4.1-9.6,4.1
		c-4.8,0-8.8-2.3-8.8-2.4c-0.4-0.2-0.5-0.7-0.4-1.1c0.1-0.4,0.6-0.7,1-0.6c2.6,0.4,4.4-0.5,5.4-1.1c-2.4-1.8-7.8-7-4.5-14.6
		c0.1-0.3,0.4-0.5,0.8-0.6c0.3,0,0.7,0.1,0.9,0.4c0.1,0.2,2.4,3.7,8.2,4.4c0-3.2,2.6-5.7,5.8-5.7c1.4,0,2.7,0.5,3.8,1.4
		c1.5-0.2,2.7-0.2,2.8-0.2c0.1,0,0.2,0,0.4,0.1c0.2-0.1,0.4-0.1,0.7,0C40.6,17,40.8,17.5,40.6,18z"/>
</g>
</svg>
