<?xml version="1.0" encoding="UTF-8" standalone="no"?>
<!-- Generator: Adobe Illustrator 19.2.1, SVG Export Plug-In . SVG Version: 6.00 Build 0)  -->

<svg
   xmlns:dc="http://purl.org/dc/elements/1.1/"
   xmlns:cc="http://creativecommons.org/ns#"
   xmlns:rdf="http://www.w3.org/1999/02/22-rdf-syntax-ns#"
   xmlns:svg="http://www.w3.org/2000/svg"
   xmlns="http://www.w3.org/2000/svg"
   xmlns:sodipodi="http://sodipodi.sourceforge.net/DTD/sodipodi-0.dtd"
   xmlns:inkscape="http://www.inkscape.org/namespaces/inkscape"
   version="1.1"
   id="Layer_1"
   x="0px"
   y="0px"
   viewBox="0 2 111.9 193.50001"
   xml:space="preserve"
   inkscape:version="0.91 r13725"
   sodipodi:docname="logo.svg"
   width="111.9"
   height="193.50002"><metadata
     id="metadata93"><rdf:RDF><cc:Work
         rdf:about=""><dc:format>image/svg+xml</dc:format><dc:type
           rdf:resource="http://purl.org/dc/dcmitype/StillImage" /><dc:title></dc:title><dc:title></dc:title></cc:Work></rdf:RDF></metadata><defs
     id="defs91" /><sodipodi:namedview
     pagecolor="#ffffff"
     bordercolor="#666666"
     borderopacity="1"
     objecttolerance="10"
     gridtolerance="10"
     guidetolerance="10"
     inkscape:pageopacity="0"
     inkscape:pageshadow="2"
     inkscape:window-width="1286"
     inkscape:window-height="760"
     id="namedview89"
     showgrid="false"
     inkscape:zoom="2.2132254"
     inkscape:cx="92.096341"
     inkscape:cy="98.653642"
     inkscape:window-x="1"
     inkscape:window-y="0"
     inkscape:window-maximized="0"
     inkscape:current-layer="Layer_1"
     fit-margin-top="0"
     fit-margin-left="0"
     fit-margin-right="0"
     fit-margin-bottom="0" /><style
     type="text/css"
     id="style3">
	.st0{fill:#FFFFFF;}
	.st1{fill:#FCC00D;}
	.st2{fill:#020304;}
	.st3{fill:#010202;}
</style><g
     id="g5"
     transform="translate(0,-106.1)"><rect
       y="288.20001"
       class="st0"
       width="111.9"
       height="13.4"
       id="rect7"
       x="0"
       style="fill:#ffffff" /></g><g
     id="g9"
     transform="translate(0,-106.1)"><rect
       y="108.1"
       class="st1"
       width="111.9"
       height="181.5"
       id="rect11"
       x="0"
       style="fill:#fcc00d" /></g><g
     id="g13"
     transform="translate(0,-106.1)"><path
       class="st0"
       d="m 29.3,191.5 c -0.3,0.2 -0.6,0.4 -1.1,0.6 -0.5,0.2 -0.9,0.2 -1.5,0.2 -0.8,0 -1.4,-0.1 -1.9,-0.3 -0.5,-0.2 -0.8,-0.5 -1,-1 -0.6,-1.9 -1.1,-3.4 -1.5,-4.5 -0.4,-1.2 -0.7,-2.2 -0.9,-3 l -0.2,0 c -0.1,1.3 -0.1,2.4 -0.1,3.4 0,1 -0.1,2 -0.1,3 0,1 0,2 -0.1,3 0,1 -0.1,2.1 -0.1,3.3 -0.3,0.1 -0.6,0.2 -1.1,0.3 -0.4,0.1 -0.9,0.1 -1.3,0.1 -0.9,0 -1.7,-0.1 -2.2,-0.4 -0.5,-0.3 -0.8,-0.8 -0.8,-1.6 l 0.9,-16.2 c 0.2,-0.3 0.5,-0.6 1.1,-0.9 0.6,-0.3 1.4,-0.5 2.4,-0.5 1.1,0 2,0.2 2.6,0.5 0.6,0.3 1.1,0.9 1.4,1.7 0.2,0.5 0.4,1.1 0.6,1.8 0.2,0.7 0.4,1.3 0.7,2 0.2,0.7 0.4,1.4 0.7,2.1 0.2,0.7 0.4,1.3 0.6,1.9 l 0.2,0 c 0.5,-1.8 1,-3.5 1.5,-5.2 0.5,-1.7 1,-3.1 1.4,-4.2 0.3,-0.2 0.7,-0.3 1.2,-0.4 0.5,-0.1 1.1,-0.2 1.7,-0.2 1,0 1.9,0.2 2.5,0.5 0.7,0.3 1,0.7 1.1,1.3 0.1,0.4 0.2,1.1 0.3,2 0.1,0.9 0.2,1.9 0.3,3 0.1,1.1 0.2,2.3 0.3,3.5 0.1,1.2 0.2,2.4 0.3,3.5 0.1,1.1 0.2,2.2 0.2,3.1 0.1,0.9 0.1,1.7 0.1,2.2 -0.4,0.2 -0.7,0.4 -1.1,0.5 -0.4,0.1 -0.9,0.1 -1.5,0.1 -0.8,0 -1.5,-0.1 -2,-0.4 -0.5,-0.3 -0.8,-0.8 -0.9,-1.6 -0.1,-2.3 -0.2,-4.4 -0.2,-6.2 0,-1.8 -0.1,-3.4 -0.1,-4.6 l -0.2,0 c -0.2,0.8 -0.5,1.9 -0.9,3.1 -0.4,1.2 -0.7,2.6 -1.3,4.5 z"
       id="path15"
       inkscape:connector-curvature="0"
       style="fill:#ffffff" /><path
       class="st0"
       d="m 45.6,177.6 c 0.4,-0.2 0.9,-0.4 1.6,-0.6 0.7,-0.2 1.5,-0.3 2.2,-0.3 1.1,0 2,0.2 2.8,0.5 0.8,0.3 1.3,0.8 1.6,1.4 0.4,1.1 0.8,2.4 1.2,3.8 0.4,1.4 0.9,3 1.3,4.5 0.4,1.6 0.9,3.1 1.3,4.6 0.4,1.5 0.8,2.9 1.1,4 -0.3,0.3 -0.6,0.5 -1.1,0.7 -0.5,0.2 -1.1,0.3 -1.8,0.3 -0.5,0 -0.9,0 -1.3,-0.1 -0.3,-0.1 -0.6,-0.2 -0.9,-0.4 -0.2,-0.2 -0.4,-0.4 -0.5,-0.7 -0.1,-0.3 -0.3,-0.6 -0.4,-1 l -0.6,-2.2 -5.8,0 c -0.2,0.6 -0.3,1.3 -0.5,2 -0.2,0.7 -0.3,1.3 -0.5,2 -0.3,0.1 -0.6,0.2 -0.9,0.3 -0.3,0.1 -0.7,0.1 -1.2,0.1 -1.1,0 -1.9,-0.2 -2.4,-0.6 -0.5,-0.4 -0.8,-0.9 -0.8,-1.5 0,-0.3 0,-0.6 0.1,-0.9 0.1,-0.3 0.2,-0.6 0.3,-1 0.1,-0.6 0.4,-1.3 0.6,-2.1 0.3,-0.8 0.6,-1.8 0.9,-2.8 0.3,-1 0.7,-2 1,-3 0.4,-1 0.7,-2 1,-2.9 0.3,-0.9 0.6,-1.7 0.9,-2.5 0.4,-0.7 0.6,-1.2 0.8,-1.6 z m 3.8,4.1 c -0.3,0.9 -0.6,1.9 -1,3 -0.4,1.1 -0.7,2.2 -1,3.3 l 3.9,0 c -0.3,-1.1 -0.6,-2.3 -0.9,-3.4 -0.3,-1.1 -0.6,-2.1 -0.8,-2.9 l -0.2,0 z"
       id="path17"
       inkscape:connector-curvature="0"
       style="fill:#ffffff" /><path
       class="st0"
       d="m 67,196.2 c -0.2,0.1 -0.6,0.1 -1.1,0.2 -0.5,0.1 -1,0.1 -1.5,0.1 -0.5,0 -0.9,0 -1.3,-0.1 -0.4,-0.1 -0.7,-0.2 -0.9,-0.4 -0.2,-0.2 -0.4,-0.5 -0.6,-0.8 -0.2,-0.3 -0.2,-0.8 -0.2,-1.3 l 0,-15 c 0,-0.4 0.1,-0.8 0.4,-1 0.2,-0.2 0.6,-0.4 1,-0.6 0.7,-0.3 1.5,-0.4 2.5,-0.6 0.9,-0.1 1.8,-0.2 2.8,-0.2 2.9,0 5.2,0.6 6.7,1.9 1.5,1.3 2.3,2.9 2.3,5.1 0,1 -0.2,2 -0.5,2.8 -0.3,0.8 -0.8,1.6 -1.5,2.2 -0.6,0.6 -1.5,1.1 -2.4,1.4 -1,0.3 -2.1,0.5 -3.4,0.5 l -2.3,0 0,5.8 z M 68.6,186 c 0.9,0 1.6,-0.2 2.1,-0.6 0.5,-0.4 0.7,-1 0.7,-1.9 0,-0.8 -0.2,-1.4 -0.7,-1.9 -0.5,-0.4 -1.2,-0.7 -2.2,-0.7 -0.3,0 -0.6,0 -0.8,0 -0.2,0 -0.5,0 -0.7,0.1 l 0,4.9 1.6,0 z"
       id="path19"
       inkscape:connector-curvature="0"
       style="fill:#ffffff" /><path
       class="st0"
       d="m 83,177.6 c 0.4,-0.2 0.9,-0.4 1.6,-0.6 0.7,-0.2 1.5,-0.3 2.2,-0.3 1.1,0 2,0.2 2.8,0.5 0.8,0.3 1.3,0.8 1.6,1.4 0.4,1.1 0.8,2.4 1.2,3.8 0.4,1.4 0.9,3 1.3,4.5 0.4,1.5 0.9,3.1 1.3,4.6 0.4,1.5 0.8,2.9 1.1,4 -0.3,0.3 -0.6,0.5 -1.1,0.7 -0.5,0.2 -1.1,0.3 -1.8,0.3 -0.5,0 -0.9,0 -1.3,-0.1 -0.3,-0.1 -0.6,-0.2 -0.9,-0.4 -0.3,-0.2 -0.4,-0.4 -0.5,-0.7 -0.1,-0.3 -0.3,-0.6 -0.4,-1 l -0.6,-2.2 -5.8,0 c -0.2,0.6 -0.3,1.3 -0.5,2 -0.2,0.7 -0.3,1.3 -0.5,2 -0.3,0.1 -0.6,0.2 -0.9,0.3 -0.3,0.1 -0.7,0.1 -1.2,0.1 -1.1,0 -1.9,-0.2 -2.4,-0.6 -0.5,-0.4 -0.8,-0.9 -0.8,-1.5 0,-0.3 0,-0.6 0.1,-0.9 0.1,-0.3 0.2,-0.6 0.3,-1 0.1,-0.6 0.4,-1.3 0.6,-2.1 0.2,-0.8 0.6,-1.8 0.9,-2.8 0.3,-1 0.7,-2 1,-3 0.4,-1 0.7,-2 1,-2.9 0.3,-0.9 0.6,-1.7 0.9,-2.5 0.5,-0.7 0.7,-1.2 0.8,-1.6 z m 3.9,4.1 c -0.3,0.9 -0.6,1.9 -1,3 -0.4,1.1 -0.7,2.2 -1,3.3 l 3.9,0 c -0.3,-1.1 -0.6,-2.3 -0.9,-3.4 -0.3,-1.1 -0.6,-2.1 -0.8,-2.9 l -0.2,0 z"
       id="path21"
       inkscape:connector-curvature="0"
       style="fill:#ffffff" /></g><g
     id="g23"
     transform="translate(0,-106.1)"><path
       class="st2"
       d="m 20.8,213 0,5.4 c -0.2,0.1 -0.5,0.1 -1,0.2 -0.4,0.1 -0.9,0.1 -1.3,0.1 -0.4,0 -0.8,0 -1.1,-0.1 -0.3,-0.1 -0.6,-0.2 -0.8,-0.4 -0.2,-0.2 -0.4,-0.4 -0.5,-0.7 -0.1,-0.3 -0.2,-0.7 -0.2,-1.2 L 16,202.9 c 0,-0.4 0.1,-0.7 0.3,-0.9 0.2,-0.2 0.5,-0.4 0.9,-0.5 0.6,-0.2 1.4,-0.4 2.2,-0.5 0.9,-0.1 1.8,-0.1 2.7,-0.1 2.6,0 4.6,0.6 5.9,1.7 1.3,1.1 2,2.6 2,4.5 0,1.2 -0.3,2.2 -0.9,3 -0.6,0.8 -1.3,1.5 -2.2,1.9 0.7,0.9 1.3,1.8 2,2.6 0.7,0.8 1.2,1.6 1.5,2.2 -0.2,0.7 -0.5,1.2 -1,1.5 -0.5,0.3 -1.1,0.5 -1.7,0.5 -0.4,0 -0.8,-0.1 -1.1,-0.1 -0.3,-0.1 -0.6,-0.2 -0.8,-0.4 -0.2,-0.2 -0.4,-0.4 -0.6,-0.6 -0.2,-0.2 -0.4,-0.5 -0.5,-0.8 l -2.4,-3.8 -1.5,-0.1 z m 1.8,-3.8 c 0.7,0 1.3,-0.2 1.7,-0.5 0.4,-0.4 0.6,-0.9 0.6,-1.6 0,-0.7 -0.2,-1.3 -0.7,-1.6 -0.5,-0.4 -1.2,-0.6 -2.2,-0.6 -0.3,0 -0.5,0 -0.7,0 -0.2,0 -0.4,0 -0.6,0.1 l 0,4.3 1.9,-0.1 z"
       id="path25"
       inkscape:connector-curvature="0"
       style="fill:#020304" /><path
       class="st2"
       d="m 33.2,204 c 0,-0.8 0.2,-1.5 0.7,-1.9 0.5,-0.5 1.1,-0.7 1.9,-0.7 l 9.4,0 c 0.1,0.2 0.2,0.5 0.4,0.8 0.1,0.3 0.2,0.7 0.2,1.1 0,0.7 -0.2,1.2 -0.5,1.5 -0.3,0.3 -0.7,0.5 -1.2,0.4 l -6,0 0,2.6 6.4,0 c 0.1,0.2 0.2,0.5 0.4,0.8 0.1,0.3 0.2,0.7 0.2,1.1 0,0.7 -0.2,1.2 -0.5,1.5 -0.3,0.3 -0.7,0.5 -1.2,0.4 l -5.2,0 0,3 7.3,0 c 0.1,0.2 0.2,0.5 0.4,0.8 0.1,0.3 0.2,0.7 0.2,1.1 0,0.7 -0.2,1.2 -0.5,1.5 -0.3,0.3 -0.7,0.5 -1.2,0.5 l -8.3,0 c -0.8,0 -1.5,-0.2 -1.9,-0.7 -0.5,-0.5 -0.7,-1.1 -0.7,-1.9 L 33.2,204 Z"
       id="path27"
       inkscape:connector-curvature="0"
       style="fill:#020304" /><path
       class="st2"
       d="m 53.6,218.6 c -0.2,0.1 -0.5,0.1 -1,0.2 -0.4,0.1 -0.9,0.1 -1.3,0.1 -0.4,0 -0.8,0 -1.1,-0.1 -0.3,-0.1 -0.6,-0.2 -0.8,-0.4 -0.2,-0.2 -0.4,-0.4 -0.5,-0.7 -0.1,-0.3 -0.2,-0.7 -0.2,-1.2 l 0.1,-13.4 c 0,-0.4 0.1,-0.7 0.3,-0.9 0.2,-0.2 0.5,-0.4 0.9,-0.5 0.6,-0.2 1.4,-0.4 2.2,-0.5 0.8,-0.1 1.7,-0.1 2.5,-0.1 2.6,0 4.6,0.6 6,1.7 1.4,1.1 2.1,2.6 2,4.5 0,0.9 -0.2,1.8 -0.5,2.5 -0.3,0.7 -0.7,1.4 -1.3,1.9 -0.6,0.5 -1.3,0.9 -2.2,1.2 -0.9,0.3 -1.9,0.4 -3.1,0.4 l -2,0 0,5.3 z m 1.6,-9.1 c 0.8,0 1.4,-0.2 1.8,-0.5 0.4,-0.4 0.6,-0.9 0.6,-1.7 0,-0.7 -0.2,-1.3 -0.7,-1.7 -0.4,-0.4 -1.1,-0.6 -1.9,-0.6 -0.3,0 -0.6,0 -0.8,0 -0.2,0 -0.4,0 -0.6,0.1 l 0,4.4 1.6,0 z"
       id="path29"
       inkscape:connector-curvature="0"
       style="fill:#020304" /><path
       class="st2"
       d="m 70.1,213.2 0,5.4 c -0.2,0.1 -0.5,0.1 -1,0.2 -0.4,0.1 -0.9,0.1 -1.3,0.1 -0.4,0 -0.8,0 -1.1,-0.1 -0.3,-0.1 -0.6,-0.2 -0.8,-0.4 -0.2,-0.2 -0.4,-0.4 -0.5,-0.7 -0.1,-0.3 -0.2,-0.7 -0.2,-1.2 l 0.1,-13.4 c 0,-0.4 0.1,-0.7 0.3,-0.9 0.2,-0.2 0.5,-0.4 0.9,-0.5 0.6,-0.2 1.4,-0.4 2.2,-0.5 0.8,-0.1 1.8,-0.1 2.7,-0.1 2.6,0 4.6,0.6 5.9,1.7 1.3,1.1 2,2.6 2,4.5 0,1.2 -0.3,2.2 -0.9,3 -0.6,0.8 -1.3,1.5 -2.2,1.9 0.7,0.9 1.3,1.8 2,2.6 0.7,0.8 1.2,1.6 1.5,2.2 -0.2,0.7 -0.5,1.2 -1,1.5 -0.5,0.3 -1.1,0.5 -1.7,0.5 -0.4,0 -0.8,-0.1 -1.1,-0.1 -0.3,-0.1 -0.6,-0.2 -0.8,-0.4 -0.2,-0.2 -0.4,-0.4 -0.6,-0.6 -0.2,-0.2 -0.4,-0.5 -0.5,-0.8 l -2.4,-3.8 -1.5,-0.1 z m 1.8,-3.8 c 0.7,0 1.3,-0.2 1.7,-0.5 0.4,-0.3 0.6,-0.9 0.6,-1.6 0,-0.7 -0.2,-1.3 -0.7,-1.6 -0.5,-0.4 -1.2,-0.6 -2.2,-0.6 -0.3,0 -0.5,0 -0.7,0 -0.2,0 -0.4,0 -0.6,0.1 l 0,4.3 1.9,-0.1 z"
       id="path31"
       inkscape:connector-curvature="0"
       style="fill:#020304" /><path
       class="st2"
       d="m 90.7,218.7 c -0.2,0.1 -0.5,0.1 -1,0.2 -0.4,0.1 -0.9,0.1 -1.3,0.1 -0.9,0 -1.5,-0.2 -2,-0.4 -0.4,-0.3 -0.6,-0.9 -0.6,-1.9 l 0,-3.8 c -0.5,-0.7 -1,-1.5 -1.5,-2.3 -0.5,-0.9 -1.1,-1.7 -1.6,-2.6 -0.5,-0.9 -1,-1.8 -1.5,-2.6 -0.5,-0.9 -0.8,-1.7 -1.1,-2.4 0.2,-0.3 0.6,-0.6 1,-0.9 0.4,-0.3 1,-0.4 1.6,-0.4 0.7,0 1.3,0.2 1.8,0.5 0.5,0.3 0.9,0.9 1.3,1.7 l 2.3,4.7 0.2,0 c 0.3,-0.6 0.5,-1.1 0.7,-1.6 0.2,-0.5 0.4,-1 0.6,-1.4 0.2,-0.5 0.4,-1 0.6,-1.5 0.2,-0.5 0.5,-1.1 0.7,-1.8 0.3,-0.2 0.7,-0.3 1.1,-0.4 0.4,-0.1 0.8,-0.1 1.2,-0.1 0.7,0 1.2,0.2 1.7,0.5 0.5,0.4 0.7,0.9 0.7,1.6 0,0.2 0,0.5 -0.1,0.8 -0.1,0.3 -0.3,0.8 -0.7,1.5 -0.3,0.7 -0.8,1.5 -1.5,2.6 -0.7,1.1 -1.5,2.6 -2.7,4.4 l 0.1,5.5 z"
       id="path33"
       inkscape:connector-curvature="0"
       style="fill:#020304" /></g><g
     id="g35"
     transform="translate(0,-106.1)"><path
       class="st2"
       d="m 24.8,226 c 0.2,-0.1 0.6,-0.2 1.1,-0.4 0.5,-0.1 1,-0.2 1.5,-0.2 0.9,0 1.6,0.1 2.2,0.4 0.6,0.3 0.9,0.6 1.1,1.1 0.2,0.9 0.4,1.7 0.6,2.4 0.2,0.7 0.4,1.5 0.6,2.1 0.2,0.7 0.4,1.4 0.5,2 0.2,0.7 0.3,1.4 0.5,2.1 l 0.2,0 c 0.2,-1.3 0.4,-2.5 0.5,-3.6 0.2,-1.2 0.3,-2.3 0.4,-3.4 0.1,-1.1 0.3,-2.2 0.4,-3.3 0.1,-1.1 0.3,-2.2 0.4,-3.3 0.8,-0.4 1.6,-0.6 2.5,-0.6 0.8,0 1.4,0.2 2,0.5 0.6,0.3 0.8,0.9 0.8,1.7 0,0.5 -0.1,1.1 -0.2,2 -0.1,0.8 -0.2,1.8 -0.4,2.8 -0.2,1 -0.4,2.1 -0.6,3.3 -0.2,1.1 -0.4,2.2 -0.7,3.3 -0.3,1.1 -0.5,2 -0.7,2.8 -0.2,0.8 -0.5,1.5 -0.7,2 -0.3,0.3 -0.8,0.5 -1.5,0.7 -0.7,0.2 -1.4,0.3 -2.2,0.3 -1,0 -1.8,-0.1 -2.5,-0.4 -0.7,-0.3 -1.1,-0.6 -1.2,-1.1 -0.3,-0.8 -0.6,-1.8 -0.9,-3 -0.3,-1.1 -0.6,-2.4 -1,-3.8 -0.3,1.4 -0.6,2.7 -0.9,4 -0.3,1.3 -0.6,2.4 -0.9,3.3 -0.3,0.3 -0.8,0.5 -1.4,0.7 -0.6,0.2 -1.3,0.3 -2.1,0.3 -0.9,0 -1.8,-0.1 -2.5,-0.4 -0.8,-0.3 -1.3,-0.6 -1.5,-1.1 -0.2,-0.4 -0.4,-0.9 -0.6,-1.7 -0.2,-0.7 -0.4,-1.6 -0.7,-2.5 -0.2,-1 -0.5,-2 -0.7,-3.1 -0.2,-1.1 -0.4,-2.2 -0.6,-3.3 -0.2,-1.1 -0.4,-2.2 -0.5,-3.2 -0.2,-1.1 -0.3,-2 -0.4,-2.9 0.3,-0.3 0.7,-0.5 1.2,-0.7 0.5,-0.2 1.1,-0.3 1.7,-0.3 0.8,0 1.4,0.2 2,0.5 0.5,0.3 0.8,0.9 0.9,1.7 0.3,2.1 0.6,3.9 0.8,5.3 0.2,1.4 0.4,2.6 0.5,3.5 0.1,0.9 0.2,1.6 0.3,2.1 0.1,0.5 0.1,0.9 0.2,1.2 l 0.2,0 c 0.2,-0.8 0.4,-1.6 0.5,-2.3 0.2,-0.7 0.3,-1.4 0.5,-2.1 0.2,-0.7 0.4,-1.5 0.6,-2.3 0.3,-1 0.5,-2 0.7,-3.1 z"
       id="path37"
       inkscape:connector-curvature="0"
       style="fill:#020304" /><path
       class="st2"
       d="m 46.6,222.1 c 0.4,-0.2 0.9,-0.4 1.6,-0.6 0.7,-0.2 1.4,-0.3 2.2,-0.3 1,0 2,0.2 2.8,0.5 0.8,0.3 1.3,0.8 1.5,1.4 0.4,1.1 0.8,2.4 1.2,3.8 0.4,1.4 0.9,2.9 1.3,4.5 0.4,1.5 0.9,3 1.3,4.5 0.4,1.5 0.8,2.8 1.1,4 -0.3,0.3 -0.6,0.5 -1.1,0.7 -0.5,0.2 -1.1,0.3 -1.8,0.3 -0.5,0 -0.9,0 -1.3,-0.1 -0.3,-0.1 -0.6,-0.2 -0.8,-0.4 -0.2,-0.2 -0.4,-0.4 -0.5,-0.7 -0.1,-0.3 -0.3,-0.6 -0.4,-0.9 l -0.6,-2.2 -5.7,0 c -0.2,0.6 -0.3,1.3 -0.5,1.9 -0.2,0.7 -0.3,1.3 -0.5,1.9 -0.3,0.1 -0.6,0.2 -0.9,0.3 -0.3,0.1 -0.7,0.1 -1.2,0.1 -1.1,0 -1.8,-0.2 -2.4,-0.6 -0.5,-0.4 -0.8,-0.9 -0.8,-1.5 0,-0.3 0,-0.6 0.1,-0.9 0.1,-0.3 0.2,-0.6 0.3,-1 0.1,-0.6 0.4,-1.3 0.6,-2.1 0.2,-0.8 0.6,-1.7 0.9,-2.7 0.3,-1 0.7,-2 1,-3 0.4,-1 0.7,-2 1,-2.9 0.3,-0.9 0.6,-1.7 0.9,-2.4 0.3,-0.7 0.5,-1.2 0.7,-1.6 z m 3.7,4 c -0.3,0.9 -0.6,1.8 -1,2.9 -0.4,1.1 -0.7,2.2 -1,3.3 l 3.9,0 c -0.3,-1.1 -0.6,-2.2 -0.9,-3.3 -0.3,-1.1 -0.6,-2 -0.8,-2.9 l -0.2,0 z"
       id="path39"
       inkscape:connector-curvature="0"
       style="fill:#020304" /><path
       class="st2"
       d="m 60.2,226 c -0.1,-0.2 -0.3,-0.5 -0.4,-0.9 -0.1,-0.4 -0.2,-0.8 -0.2,-1.3 0,-0.8 0.2,-1.4 0.6,-1.8 0.4,-0.4 0.8,-0.5 1.4,-0.5 l 13.6,0.1 c 0.1,0.2 0.3,0.5 0.4,0.9 0.1,0.4 0.2,0.8 0.2,1.3 0,0.8 -0.2,1.4 -0.6,1.8 -0.4,0.4 -0.8,0.5 -1.4,0.5 l -3.5,0 -0.1,14.5 c -0.2,0.1 -0.6,0.1 -1.1,0.2 -0.5,0.1 -1,0.1 -1.5,0.1 -0.5,0 -0.9,0 -1.3,-0.1 -0.4,-0.1 -0.7,-0.2 -0.9,-0.4 -0.2,-0.2 -0.4,-0.5 -0.6,-0.8 -0.1,-0.3 -0.2,-0.8 -0.2,-1.3 l 0.1,-12.1 -4.5,-0.2 z"
       id="path41"
       inkscape:connector-curvature="0"
       style="fill:#020304" /><path
       class="st2"
       d="m 89,240.6 c -0.2,0.1 -0.6,0.1 -1.1,0.2 -0.5,0.1 -1,0.1 -1.4,0.1 -1,0 -1.7,-0.2 -2.2,-0.5 -0.5,-0.3 -0.7,-1 -0.7,-2.1 l 0,-4.2 c -0.5,-0.8 -1.1,-1.6 -1.7,-2.6 -0.6,-0.9 -1.2,-1.9 -1.8,-2.9 -0.6,-1 -1.1,-2 -1.6,-2.9 -0.5,-0.9 -0.9,-1.8 -1.2,-2.6 0.3,-0.4 0.6,-0.7 1.1,-1 0.5,-0.3 1.1,-0.5 1.7,-0.5 0.8,0 1.5,0.2 2,0.5 0.5,0.3 1,1 1.4,1.9 l 2.6,5.2 0.2,0 c 0.3,-0.6 0.6,-1.2 0.8,-1.8 0.2,-0.5 0.4,-1.1 0.6,-1.6 0.2,-0.5 0.4,-1.1 0.7,-1.7 0.3,-0.6 0.5,-1.2 0.8,-2 0.4,-0.2 0.8,-0.3 1.3,-0.4 0.5,-0.1 0.9,-0.2 1.3,-0.2 0.7,0 1.3,0.2 1.9,0.6 0.5,0.4 0.8,1 0.8,1.7 0,0.3 -0.1,0.6 -0.2,0.9 -0.1,0.4 -0.3,0.9 -0.7,1.6 -0.4,0.7 -0.9,1.7 -1.7,2.9 -0.7,1.2 -1.7,2.8 -2.9,4.8 l 0,6.6 z"
       id="path43"
       inkscape:connector-curvature="0"
       style="fill:#020304" /></g><g
     id="g45"
     transform="translate(0,-106.1)"><path
       class="st2"
       d="m 24.5,249 -8.5,0 c -0.2,-0.3 -0.3,-0.6 -0.4,-1 -0.1,-0.4 -0.2,-0.9 -0.2,-1.4 0,-0.9 0.2,-1.5 0.6,-1.9 0.4,-0.4 0.9,-0.6 1.6,-0.6 l 12.9,0.1 c 1,0.8 1.5,1.9 1.5,3.3 0,0.6 -0.1,1.1 -0.4,1.7 -0.3,0.6 -0.6,1.1 -1,1.6 l -7.9,9.4 8.9,0 c 0.2,0.3 0.3,0.6 0.4,1 0.1,0.4 0.2,0.9 0.2,1.4 0,0.9 -0.2,1.5 -0.6,1.9 -0.4,0.4 -0.9,0.6 -1.6,0.6 L 16.4,265 c -0.4,-0.3 -0.7,-0.8 -1,-1.3 -0.3,-0.6 -0.4,-1.2 -0.4,-1.9 0,-0.6 0.2,-1.2 0.5,-1.8 0.3,-0.6 0.7,-1.2 1.1,-1.7 l 7.9,-9.3 z"
       id="path47"
       inkscape:connector-curvature="0"
       style="fill:#020304" /><path
       class="st2"
       d="m 40.2,244.9 c 0.4,-0.2 1,-0.4 1.8,-0.6 0.8,-0.2 1.6,-0.3 2.4,-0.3 1.2,0 2.2,0.2 3.1,0.5 0.9,0.3 1.5,0.9 1.7,1.6 0.4,1.2 0.9,2.6 1.3,4.2 0.5,1.6 1,3.2 1.4,4.9 0.5,1.7 0.9,3.4 1.4,5 0.5,1.7 0.8,3.1 1.2,4.4 -0.3,0.3 -0.7,0.6 -1.2,0.8 -0.5,0.2 -1.2,0.3 -2,0.3 -0.6,0 -1,-0.1 -1.4,-0.1 -0.4,-0.1 -0.7,-0.2 -0.9,-0.4 -0.2,-0.2 -0.4,-0.4 -0.6,-0.7 -0.1,-0.3 -0.3,-0.6 -0.4,-1 l -0.6,-2.4 -6.3,0 c -0.2,0.7 -0.4,1.4 -0.6,2.1 -0.2,0.7 -0.4,1.5 -0.6,2.1 -0.3,0.1 -0.7,0.2 -1,0.3 -0.4,0.1 -0.8,0.1 -1.3,0.1 -1.2,0 -2,-0.2 -2.6,-0.6 -0.6,-0.4 -0.8,-1 -0.8,-1.7 0,-0.3 0,-0.6 0.1,-1 0.1,-0.4 0.2,-0.7 0.3,-1.1 0.2,-0.6 0.4,-1.4 0.7,-2.3 0.3,-0.9 0.6,-1.9 1,-3 0.4,-1.1 0.7,-2.2 1.1,-3.3 0.4,-1.1 0.8,-2.2 1.1,-3.2 0.4,-1 0.7,-1.9 1,-2.7 0.3,-0.9 0.5,-1.5 0.7,-1.9 z m 4.1,4.5 c -0.3,1 -0.7,2 -1.1,3.2 -0.4,1.2 -0.8,2.4 -1.1,3.6 l 4.3,0 c -0.3,-1.2 -0.6,-2.5 -1,-3.7 -0.3,-1.2 -0.6,-2.3 -0.9,-3.2 l -0.2,0.1 z"
       id="path49"
       inkscape:connector-curvature="0"
       style="fill:#020304" /><path
       class="st2"
       d="m 67.7,248.6 c -1.8,0 -3.1,0.5 -4.1,1.6 -1,1.1 -1.4,2.6 -1.4,4.6 0,2 0.5,3.6 1.6,4.6 1,1.1 2.5,1.6 4.2,1.6 0.9,0 1.7,-0.1 2.4,-0.4 0.7,-0.3 1.3,-0.5 1.9,-0.9 0.4,0.3 0.7,0.7 0.9,1.2 0.2,0.5 0.3,1 0.3,1.6 0,0.9 -0.5,1.7 -1.6,2.4 -1.1,0.7 -2.7,1 -4.8,1 -1.5,0 -3,-0.2 -4.4,-0.7 -1.4,-0.5 -2.5,-1.1 -3.6,-2 -1,-0.9 -1.8,-2.1 -2.4,-3.5 -0.6,-1.4 -0.9,-3.1 -0.9,-5 0,-1.8 0.3,-3.4 0.9,-4.8 0.6,-1.4 1.4,-2.5 2.3,-3.5 1,-0.9 2.1,-1.6 3.5,-2.1 1.3,-0.5 2.7,-0.7 4.2,-0.7 2.1,0 3.8,0.4 4.9,1.1 1.2,0.7 1.7,1.6 1.7,2.7 0,0.6 -0.2,1.1 -0.5,1.6 -0.3,0.4 -0.6,0.8 -1,1 -0.6,-0.4 -1.2,-0.7 -1.9,-1 -0.7,-0.3 -1.3,-0.4 -2.2,-0.4 z"
       id="path51"
       inkscape:connector-curvature="0"
       style="fill:#020304" /><path
       class="st2"
       d="m 80.9,244.4 c 0.3,0 0.7,-0.1 1.2,-0.2 0.6,-0.1 1.1,-0.1 1.6,-0.1 0.5,0 1,0 1.4,0.1 0.4,0.1 0.7,0.2 1,0.4 0.3,0.2 0.5,0.5 0.6,0.9 0.1,0.4 0.2,0.9 0.2,1.5 l -0.1,12.8 c 0,2.1 -0.6,3.6 -1.8,4.6 -1.2,1 -2.9,1.5 -5.2,1.5 -1.2,0 -2.2,-0.2 -2.9,-0.6 -0.5,-0.3 -0.9,-0.6 -1.2,-1 -0.3,-0.4 -0.4,-0.9 -0.4,-1.5 0,-0.5 0.1,-0.9 0.2,-1.2 0.1,-0.3 0.3,-0.6 0.5,-0.8 0.4,0.1 0.8,0.2 1.1,0.2 0.3,0 0.7,0.1 1,0.1 0.9,0 1.5,-0.2 1.9,-0.7 0.4,-0.4 0.6,-1.1 0.6,-2 l 0.3,-14 z"
       id="path53"
       inkscape:connector-curvature="0"
       style="fill:#020304" /><path
       class="st2"
       d="m 97.3,265.4 c -0.3,0.1 -0.7,0.1 -1.2,0.2 -0.5,0.1 -1.1,0.1 -1.6,0.1 -0.5,0 -1,0 -1.4,-0.1 -0.4,-0.1 -0.7,-0.2 -1,-0.4 -0.3,-0.2 -0.5,-0.5 -0.6,-0.9 -0.1,-0.4 -0.2,-0.9 -0.2,-1.5 l 0.1,-18.3 c 0.3,0 0.7,-0.1 1.2,-0.2 0.6,-0.1 1.1,-0.1 1.6,-0.1 0.5,0 1,0 1.4,0.1 0.4,0.1 0.7,0.2 1,0.4 0.3,0.2 0.5,0.5 0.6,0.9 0.1,0.4 0.2,0.9 0.2,1.5 l -0.1,18.3 z"
       id="path55"
       inkscape:connector-curvature="0"
       style="fill:#020304" /></g><g
     id="g57"
     transform="translate(0,-106.1)"><path
       class="st3"
       d="m 23,137.1 c 0.2,-0.1 0.5,-0.2 0.9,-0.3 0.4,-0.1 0.8,-0.2 1.3,-0.2 0.7,0 1.4,0.1 1.9,0.3 0.5,0.2 0.8,0.5 0.9,1 0.2,0.7 0.4,1.4 0.5,2 0.2,0.6 0.3,1.2 0.5,1.8 0.2,0.6 0.3,1.1 0.5,1.7 0.1,0.6 0.3,1.2 0.4,1.8 l 0.1,0 c 0.2,-1.1 0.3,-2.1 0.4,-3.1 0.1,-1 0.2,-1.9 0.3,-2.9 0.1,-0.9 0.2,-1.9 0.3,-2.8 0.1,-0.9 0.2,-1.9 0.3,-2.8 0.7,-0.4 1.4,-0.6 2.1,-0.6 0.7,0 1.2,0.1 1.7,0.4 0.5,0.3 0.7,0.8 0.7,1.4 0,0.4 0,0.9 -0.1,1.7 -0.1,0.7 -0.2,1.5 -0.3,2.4 -0.1,0.9 -0.3,1.8 -0.5,2.8 -0.2,1 -0.4,1.9 -0.6,2.8 -0.2,0.9 -0.4,1.7 -0.6,2.4 -0.2,0.7 -0.4,1.3 -0.6,1.7 -0.3,0.2 -0.7,0.5 -1.3,0.6 -0.6,0.2 -1.2,0.2 -1.9,0.2 -0.8,0 -1.5,-0.1 -2.1,-0.3 -0.6,-0.2 -0.9,-0.5 -1,-0.9 -0.2,-0.7 -0.5,-1.5 -0.7,-2.5 -0.3,-1 -0.5,-2 -0.8,-3.2 -0.2,1.1 -0.5,2.3 -0.8,3.4 -0.3,1.1 -0.5,2 -0.7,2.8 -0.3,0.2 -0.7,0.5 -1.2,0.6 -0.5,0.2 -1.1,0.2 -1.7,0.2 -0.8,0 -1.5,-0.1 -2.2,-0.3 -0.6,-0.2 -1.1,-0.5 -1.3,-0.9 -0.2,-0.3 -0.3,-0.8 -0.5,-1.4 -0.2,-0.6 -0.4,-1.3 -0.6,-2.1 -0.2,-0.8 -0.4,-1.7 -0.6,-2.6 -0.2,-0.9 -0.4,-1.9 -0.6,-2.8 -0.2,-0.9 -0.3,-1.8 -0.5,-2.7 -0.1,-0.9 -0.2,-1.7 -0.3,-2.4 0.2,-0.2 0.6,-0.4 1,-0.6 0.4,-0.2 0.9,-0.3 1.4,-0.3 0.7,0 1.2,0.1 1.7,0.4 0.4,0.3 0.7,0.8 0.8,1.5 0.3,1.8 0.5,3.3 0.7,4.5 0.2,1.2 0.3,2.2 0.5,3 0.1,0.8 0.2,1.4 0.3,1.8 0.1,0.4 0.1,0.8 0.2,1 l 0.1,0 c 0.2,-0.7 0.3,-1.4 0.5,-2 0.1,-0.6 0.3,-1.2 0.4,-1.8 0.2,-0.6 0.3,-1.3 0.5,-2 0.3,-1 0.5,-1.8 0.6,-2.7 z"
       id="path59"
       inkscape:connector-curvature="0"
       style="fill:#010202" /><path
       class="st3"
       d="m 41.5,133.7 c 0.3,-0.2 0.8,-0.3 1.4,-0.5 0.6,-0.2 1.2,-0.2 1.8,-0.2 0.9,0 1.7,0.1 2.3,0.4 0.7,0.3 1.1,0.7 1.3,1.2 0.3,0.9 0.7,2 1,3.2 0.4,1.2 0.7,2.5 1.1,3.8 0.4,1.3 0.7,2.6 1.1,3.8 0.4,1.2 0.7,2.4 0.9,3.3 -0.2,0.2 -0.5,0.4 -1,0.6 -0.4,0.1 -0.9,0.2 -1.5,0.2 -0.4,0 -0.8,0 -1.1,-0.1 -0.3,-0.1 -0.5,-0.2 -0.7,-0.3 -0.2,-0.1 -0.3,-0.3 -0.4,-0.6 -0.1,-0.2 -0.2,-0.5 -0.3,-0.8 l -0.5,-1.8 -4.8,0 c -0.1,0.5 -0.3,1.1 -0.4,1.6 -0.1,0.6 -0.3,1.1 -0.4,1.6 -0.2,0.1 -0.5,0.2 -0.8,0.2 -0.3,0.1 -0.6,0.1 -1,0.1 -0.9,0 -1.6,-0.2 -2,-0.5 -0.4,-0.3 -0.6,-0.7 -0.6,-1.3 0,-0.2 0,-0.5 0.1,-0.7 0.1,-0.2 0.1,-0.5 0.2,-0.9 0.1,-0.5 0.3,-1.1 0.5,-1.8 0.2,-0.7 0.5,-1.5 0.7,-2.3 0.3,-0.8 0.5,-1.7 0.8,-2.5 0.3,-0.9 0.6,-1.7 0.8,-2.4 0.3,-0.8 0.5,-1.5 0.7,-2.1 0.5,-0.4 0.7,-0.9 0.8,-1.2 z m 3.2,3.4 c -0.2,0.7 -0.5,1.6 -0.8,2.5 -0.3,0.9 -0.6,1.8 -0.8,2.8 l 3.3,0 c -0.2,-1 -0.5,-1.9 -0.8,-2.8 -0.3,-0.9 -0.5,-1.7 -0.7,-2.4 l -0.2,0 z"
       id="path61"
       inkscape:connector-curvature="0"
       style="fill:#010202" /><path
       class="st3"
       d="m 59.3,144.1 0,5.1 c -0.2,0.1 -0.5,0.1 -0.9,0.2 -0.4,0.1 -0.8,0.1 -1.2,0.1 -0.4,0 -0.8,0 -1.1,-0.1 -0.3,-0.1 -0.6,-0.2 -0.8,-0.3 -0.2,-0.2 -0.4,-0.4 -0.5,-0.7 -0.1,-0.3 -0.2,-0.7 -0.2,-1.1 l 0,-12.5 c 0,-0.4 0.1,-0.7 0.3,-0.9 0.2,-0.2 0.5,-0.4 0.8,-0.5 0.6,-0.2 1.3,-0.4 2.1,-0.5 0.8,-0.1 1.6,-0.1 2.5,-0.1 2.4,0 4.3,0.5 5.5,1.5 1.2,1 1.9,2.4 1.9,4.2 0,1.1 -0.3,2 -0.8,2.8 -0.6,0.8 -1.2,1.4 -2,1.8 0.6,0.9 1.3,1.7 1.9,2.4 0.6,0.8 1.1,1.4 1.5,2.1 -0.2,0.6 -0.5,1.1 -1,1.4 -0.5,0.3 -1,0.5 -1.6,0.5 -0.4,0 -0.7,0 -1,-0.1 -0.3,-0.1 -0.5,-0.2 -0.7,-0.4 -0.2,-0.2 -0.4,-0.4 -0.6,-0.6 -0.2,-0.2 -0.3,-0.5 -0.5,-0.7 l -2.2,-3.6 -1.4,0 z m 1.6,-3.6 c 0.7,0 1.2,-0.2 1.6,-0.5 0.4,-0.3 0.6,-0.9 0.6,-1.5 0,-0.6 -0.2,-1.2 -0.6,-1.5 -0.4,-0.3 -1.1,-0.5 -2.1,-0.5 -0.3,0 -0.5,0 -0.6,0 -0.2,0 -0.3,0 -0.5,0.1 l 0,4 1.6,0 z"
       id="path63"
       inkscape:connector-curvature="0"
       style="fill:#010202" /><path
       class="st3"
       d="m 75.3,142.9 c -0.8,-0.3 -1.5,-0.5 -2.1,-0.8 -0.6,-0.3 -1.2,-0.6 -1.6,-1 -0.5,-0.4 -0.8,-0.9 -1.1,-1.4 -0.3,-0.5 -0.4,-1.2 -0.4,-2 0,-1.5 0.6,-2.7 1.7,-3.6 1.2,-0.9 2.8,-1.4 4.9,-1.4 0.8,0 1.5,0.1 2.1,0.2 0.7,0.1 1.2,0.3 1.7,0.5 0.5,0.2 0.8,0.5 1.1,0.8 0.3,0.3 0.4,0.7 0.4,1.2 0,0.5 -0.1,0.9 -0.3,1.2 -0.2,0.3 -0.5,0.6 -0.8,0.8 -0.4,-0.2 -0.9,-0.5 -1.6,-0.6 -0.7,-0.2 -1.4,-0.3 -2.1,-0.3 -0.8,0 -1.4,0.1 -1.7,0.3 -0.4,0.2 -0.6,0.5 -0.6,0.8 0,0.3 0.1,0.5 0.3,0.6 0.2,0.2 0.6,0.3 1,0.5 l 1.4,0.5 c 1.7,0.5 2.9,1.2 3.8,2 0.9,0.8 1.3,1.9 1.3,3.3 0,1.5 -0.6,2.7 -1.8,3.6 -1.2,0.9 -2.9,1.4 -5.2,1.4 -0.8,0 -1.6,-0.1 -2.3,-0.2 -0.7,-0.1 -1.3,-0.3 -1.8,-0.6 -0.5,-0.3 -0.9,-0.6 -1.2,-1 -0.3,-0.4 -0.4,-0.8 -0.4,-1.3 0,-0.5 0.2,-0.9 0.5,-1.3 0.3,-0.4 0.6,-0.6 1,-0.8 0.5,0.4 1.1,0.7 1.8,1 0.7,0.3 1.5,0.4 2.3,0.4 0.9,0 1.5,-0.1 1.8,-0.4 0.4,-0.3 0.5,-0.6 0.5,-0.9 0,-0.3 -0.1,-0.6 -0.4,-0.8 -0.3,-0.2 -0.7,-0.4 -1.2,-0.5 l -1,-0.2 z"
       id="path65"
       inkscape:connector-curvature="0"
       style="fill:#010202" /><path
       class="st3"
       d="m 91.9,136.9 -6.5,0 c -0.1,-0.2 -0.2,-0.5 -0.3,-0.8 -0.1,-0.3 -0.2,-0.7 -0.2,-1.1 0,-0.7 0.2,-1.2 0.5,-1.5 0.3,-0.3 0.7,-0.5 1.2,-0.5 l 9.9,0 c 0.8,0.6 1.2,1.5 1.2,2.5 0,0.4 -0.1,0.9 -0.3,1.3 -0.2,0.4 -0.5,0.8 -0.8,1.2 l -6,7.3 6.8,0 c 0.1,0.2 0.2,0.5 0.3,0.8 0.1,0.3 0.2,0.7 0.2,1.1 0,0.7 -0.2,1.2 -0.5,1.5 -0.3,0.3 -0.7,0.5 -1.2,0.5 l -10.5,0 c -0.3,-0.2 -0.5,-0.6 -0.7,-1 -0.2,-0.4 -0.3,-0.9 -0.3,-1.5 0,-0.4 0.1,-0.9 0.3,-1.4 0.2,-0.5 0.5,-0.9 0.8,-1.3 l 6.1,-7.1 z"
       id="path67"
       inkscape:connector-curvature="0"
       style="fill:#010202" /></g><g
     id="g69"
     transform="translate(0,-106.1)"><path
       class="st3"
       d="m 19,157.2 c 0.3,-0.2 0.8,-0.3 1.4,-0.5 0.6,-0.2 1.2,-0.2 1.8,-0.2 0.9,0 1.7,0.1 2.3,0.4 0.7,0.3 1.1,0.7 1.3,1.2 0.3,0.9 0.7,2 1,3.2 0.4,1.2 0.7,2.5 1.1,3.8 0.4,1.3 0.7,2.6 1.1,3.8 0.4,1.2 0.7,2.4 0.9,3.3 -0.2,0.2 -0.5,0.4 -1,0.6 -0.4,0.1 -0.9,0.2 -1.5,0.2 -0.4,0 -0.8,0 -1.1,-0.1 -0.3,-0.1 -0.5,-0.2 -0.7,-0.3 -0.2,-0.1 -0.3,-0.3 -0.4,-0.6 -0.1,-0.2 -0.2,-0.5 -0.3,-0.8 l -0.5,-1.8 -4.8,0 c -0.1,0.5 -0.3,1.1 -0.4,1.6 -0.1,0.6 -0.3,1.1 -0.4,1.6 -0.2,0.1 -0.5,0.2 -0.8,0.2 -0.3,0.1 -0.6,0.1 -1,0.1 -0.9,0 -1.6,-0.2 -2,-0.5 -0.4,-0.3 -0.6,-0.7 -0.6,-1.3 0,-0.2 0,-0.5 0.1,-0.7 0.1,-0.2 0.1,-0.5 0.2,-0.9 0.1,-0.5 0.3,-1.1 0.5,-1.8 0.2,-0.7 0.5,-1.5 0.7,-2.3 0.3,-0.8 0.5,-1.7 0.8,-2.5 0.3,-0.9 0.6,-1.7 0.8,-2.4 0.3,-0.8 0.5,-1.5 0.7,-2.1 0.2,-0.6 0.7,-0.9 0.8,-1.2 z m 3.2,3.4 c -0.2,0.7 -0.5,1.6 -0.8,2.5 -0.3,0.9 -0.6,1.8 -0.8,2.8 l 3.3,0 c -0.2,-1 -0.5,-1.9 -0.8,-2.8 -0.3,-0.9 -0.5,-1.7 -0.7,-2.4 l -0.2,0 z"
       id="path71"
       inkscape:connector-curvature="0"
       style="fill:#010202" /><path
       class="st3"
       d="m 39.1,160.6 c 0.2,-0.1 0.5,-0.2 0.9,-0.3 0.4,-0.1 0.8,-0.2 1.3,-0.2 0.7,0 1.4,0.1 1.9,0.3 0.5,0.2 0.8,0.5 0.9,1 0.2,0.7 0.4,1.4 0.5,2 0.2,0.6 0.3,1.2 0.5,1.8 0.2,0.6 0.3,1.1 0.5,1.7 0.1,0.6 0.3,1.2 0.4,1.8 l 0.1,0 c 0.2,-1.1 0.3,-2.1 0.4,-3.1 0.1,-1 0.2,-1.9 0.3,-2.9 0.1,-0.9 0.2,-1.9 0.3,-2.8 0.1,-0.9 0.2,-1.9 0.3,-2.8 0.7,-0.4 1.4,-0.6 2.1,-0.6 0.7,0 1.2,0.1 1.7,0.4 0.5,0.3 0.7,0.8 0.7,1.4 0,0.4 0,0.9 -0.1,1.7 -0.1,0.7 -0.2,1.5 -0.3,2.4 -0.1,0.9 -0.3,1.8 -0.5,2.8 -0.2,1 -0.4,1.9 -0.6,2.8 -0.2,0.9 -0.4,1.7 -0.6,2.4 -0.2,0.7 -0.4,1.3 -0.6,1.7 -0.3,0.2 -0.7,0.5 -1.3,0.6 -0.6,0.2 -1.2,0.2 -1.9,0.2 -0.8,0 -1.5,-0.1 -2.1,-0.3 -0.6,-0.2 -0.9,-0.5 -1,-0.9 -0.2,-0.7 -0.5,-1.5 -0.7,-2.5 -0.2,-1 -0.5,-2 -0.8,-3.2 -0.2,1.1 -0.5,2.3 -0.8,3.4 -0.3,1.1 -0.5,2 -0.7,2.8 -0.3,0.2 -0.7,0.5 -1.2,0.6 -0.5,0.2 -1.1,0.2 -1.7,0.2 -0.8,0 -1.5,-0.1 -2.2,-0.3 -0.6,-0.2 -1.1,-0.5 -1.3,-0.9 -0.2,-0.3 -0.3,-0.8 -0.5,-1.4 -0.2,-0.6 -0.4,-1.3 -0.6,-2.1 -0.2,-0.8 -0.4,-1.7 -0.6,-2.6 -0.2,-0.9 -0.4,-1.9 -0.6,-2.8 -0.2,-0.9 -0.3,-1.8 -0.5,-2.7 -0.1,-0.9 -0.2,-1.7 -0.3,-2.4 0.2,-0.2 0.6,-0.4 1,-0.6 0.4,-0.2 0.9,-0.3 1.4,-0.3 0.7,0 1.2,0.1 1.7,0.4 0.4,0.3 0.7,0.8 0.8,1.5 0.3,1.8 0.5,3.3 0.7,4.5 0.2,1.2 0.3,2.2 0.5,3 0.1,0.8 0.2,1.4 0.3,1.8 0.1,0.4 0.1,0.8 0.2,1 l 0.1,0 c 0.2,-0.7 0.3,-1.4 0.5,-2 0.2,-0.6 0.3,-1.2 0.4,-1.8 0.2,-0.6 0.3,-1.3 0.5,-2 0.3,-1 0.4,-1.8 0.6,-2.7 z"
       id="path73"
       inkscape:connector-curvature="0"
       style="fill:#010202" /><path
       class="st3"
       d="m 59.2,166.4 c -0.8,-0.3 -1.5,-0.5 -2.1,-0.8 -0.6,-0.3 -1.2,-0.6 -1.6,-1 -0.5,-0.4 -0.8,-0.9 -1.1,-1.4 -0.3,-0.5 -0.4,-1.2 -0.4,-2 0,-1.5 0.6,-2.7 1.7,-3.6 1.2,-0.9 2.8,-1.3 4.9,-1.3 0.8,0 1.5,0.1 2.1,0.2 0.7,0.1 1.2,0.3 1.7,0.5 0.5,0.2 0.8,0.5 1.1,0.8 0.3,0.3 0.4,0.7 0.4,1.2 0,0.5 -0.1,0.9 -0.3,1.2 -0.2,0.3 -0.5,0.6 -0.8,0.8 -0.4,-0.2 -0.9,-0.5 -1.6,-0.6 -0.7,-0.2 -1.4,-0.3 -2.1,-0.3 -0.8,0 -1.4,0.1 -1.7,0.3 -0.4,0.2 -0.6,0.5 -0.6,0.8 0,0.3 0.1,0.5 0.3,0.6 0.2,0.2 0.6,0.3 1,0.5 l 1.4,0.5 c 1.7,0.5 2.9,1.2 3.8,2 0.9,0.8 1.3,1.9 1.3,3.3 0,1.5 -0.6,2.7 -1.8,3.6 -1.2,0.9 -2.9,1.4 -5.2,1.4 -0.8,0 -1.6,-0.1 -2.3,-0.2 -0.7,-0.1 -1.3,-0.3 -1.8,-0.6 -0.5,-0.3 -0.9,-0.6 -1.2,-1 -0.3,-0.4 -0.4,-0.8 -0.4,-1.3 0,-0.5 0.2,-0.9 0.5,-1.3 0.3,-0.4 0.6,-0.6 1,-0.8 0.5,0.4 1.1,0.7 1.8,1 0.7,0.3 1.5,0.4 2.3,0.4 0.9,0 1.5,-0.1 1.8,-0.4 0.4,-0.3 0.5,-0.6 0.5,-0.9 0,-0.4 -0.1,-0.6 -0.4,-0.8 -0.3,-0.2 -0.7,-0.4 -1.2,-0.5 l -1,-0.3 z"
       id="path75"
       inkscape:connector-curvature="0"
       style="fill:#010202" /><path
       class="st3"
       d="m 73.9,166.8 0,5.8 c -0.2,0.1 -0.5,0.1 -0.9,0.2 -0.4,0.1 -0.8,0.1 -1.2,0.1 -0.4,0 -0.8,0 -1.1,-0.1 -0.3,-0.1 -0.6,-0.2 -0.8,-0.3 -0.2,-0.2 -0.4,-0.4 -0.5,-0.7 -0.1,-0.3 -0.2,-0.7 -0.2,-1.1 l 0,-14 c 0.2,0 0.5,-0.1 0.9,-0.1 0.4,-0.1 0.8,-0.1 1.2,-0.1 0.4,0 0.8,0 1.1,0.1 0.3,0.1 0.6,0.2 0.8,0.3 0.2,0.2 0.4,0.4 0.5,0.7 0.1,0.3 0.2,0.7 0.2,1.1 l 0,4.2 5.5,-6.3 c 1.2,0 2.1,0.2 2.6,0.7 0.5,0.5 0.8,1 0.8,1.6 0,0.5 -0.1,0.9 -0.3,1.3 -0.2,0.4 -0.6,0.9 -1.1,1.4 l -3.3,3.3 c 0.4,0.5 0.9,1 1.4,1.5 0.5,0.5 1,1 1.4,1.5 0.4,0.5 0.9,1 1.4,1.4 0.4,0.5 0.8,0.9 1.1,1.2 0,0.4 -0.1,0.7 -0.2,1 -0.1,0.3 -0.3,0.6 -0.6,0.8 -0.2,0.2 -0.5,0.4 -0.8,0.5 -0.3,0.1 -0.6,0.2 -1,0.2 -0.7,0 -1.3,-0.2 -1.8,-0.5 -0.5,-0.3 -0.9,-0.8 -1.3,-1.3 l -3.8,-4.4 z"
       id="path77"
       inkscape:connector-curvature="0"
       style="fill:#010202" /><path
       class="st3"
       d="m 89.3,157.2 c 0.3,-0.2 0.8,-0.3 1.4,-0.5 0.6,-0.2 1.2,-0.2 1.8,-0.2 0.9,0 1.7,0.1 2.3,0.4 0.7,0.3 1.1,0.7 1.3,1.2 0.3,0.9 0.7,2 1,3.2 0.4,1.2 0.7,2.5 1.1,3.8 0.4,1.3 0.7,2.6 1.1,3.8 0.4,1.2 0.7,2.4 0.9,3.3 -0.2,0.2 -0.5,0.4 -1,0.6 -0.4,0.1 -0.9,0.2 -1.5,0.2 -0.4,0 -0.8,0 -1.1,-0.1 -0.3,-0.1 -0.5,-0.2 -0.7,-0.3 -0.2,-0.1 -0.3,-0.3 -0.4,-0.6 -0.1,-0.2 -0.2,-0.5 -0.3,-0.8 l -0.5,-1.8 -4.7,0 c -0.1,0.5 -0.3,1.1 -0.4,1.6 -0.1,0.6 -0.3,1.1 -0.4,1.6 -0.2,0.1 -0.5,0.2 -0.8,0.2 -0.3,0.1 -0.6,0.1 -1,0.1 -0.9,0 -1.6,-0.2 -2,-0.5 -0.4,-0.3 -0.6,-0.7 -0.6,-1.3 0,-0.2 0,-0.5 0.1,-0.7 0.1,-0.2 0.1,-0.5 0.2,-0.9 0.1,-0.5 0.3,-1.1 0.5,-1.8 0.2,-0.7 0.5,-1.5 0.7,-2.3 0.3,-0.8 0.5,-1.7 0.8,-2.5 0.3,-0.9 0.6,-1.7 0.8,-2.4 0.3,-0.8 0.5,-1.5 0.7,-2.1 0.2,-0.6 0.5,-0.9 0.7,-1.2 z m 3.1,3.4 c -0.2,0.7 -0.5,1.6 -0.8,2.5 -0.3,0.9 -0.6,1.8 -0.8,2.8 l 3.3,0 c -0.2,-1 -0.5,-1.9 -0.8,-2.8 -0.3,-0.9 -0.5,-1.7 -0.7,-2.4 l -0.2,0 z"
       id="path79"
       inkscape:connector-curvature="0"
       style="fill:#010202" /></g></svg>